<svg width="198" height="104" viewBox="0 0 198 104" fill="none" xmlns="http://www.w3.org/2000/svg">
<g clip-path="url(#clip0_1_2)">
<path d="M34 83.36C27.9367 83.36 22.5817 82.255 17.935 80.045C13.345 77.7783 9.775 74.6333 7.225 70.61C4.73167 66.5867 3.485 61.9683 3.485 56.755C3.485 49.8417 5.07167 43.6933 8.245 38.31C11.475 32.9267 15.9233 28.7333 21.59 25.73C27.3133 22.67 33.8017 21.14 41.055 21.14C46.7783 21.14 51.85 22.1883 56.27 24.285C60.69 26.325 63.9767 29.2433 66.13 33.04L51.68 44.345C49.0167 39.6983 45.05 37.375 39.78 37.375C36.6633 37.375 33.8867 38.14 31.45 39.67C29.0133 41.2 27.115 43.3533 25.755 46.13C24.395 48.85 23.715 51.9667 23.715 55.48C23.715 58.9933 24.82 61.8267 27.03 63.98C29.2967 66.0767 32.2717 67.125 35.955 67.125C40.9983 67.125 45.4183 64.83 49.215 60.24L61.03 71.545C57.5733 75.795 53.635 78.8267 49.215 80.64C44.8517 82.4533 39.78 83.36 34 83.36ZM102.607 21.14C107.877 21.14 112.467 22.0467 116.377 23.86C120.287 25.6733 123.29 28.28 125.387 31.68C127.484 35.08 128.532 39.1317 128.532 43.835C128.532 46.045 128.277 48.425 127.767 50.975L121.562 82H101.502L103.882 70.015H85.012L82.632 82H62.912L69.627 48.425C71.3836 39.5283 75.0953 32.7567 80.762 28.11C86.4853 23.4633 93.767 21.14 102.607 21.14ZM106.942 54.885L107.962 49.615C108.302 47.9717 108.472 46.555 108.472 45.365C108.472 42.7017 107.792 40.7183 106.432 39.415C105.072 38.055 103.117 37.375 100.567 37.375C97.6203 37.375 95.1836 38.2817 93.257 40.095C91.387 41.9083 90.0553 44.7983 89.262 48.765L88.072 54.885H106.942ZM169.926 21.14C175.196 21.14 179.786 22.0467 183.696 23.86C187.606 25.6733 190.61 28.28 192.706 31.68C194.803 35.08 195.851 39.1317 195.851 43.835C195.851 46.045 195.596 48.425 195.086 50.975L188.881 82H168.821L171.201 70.015H152.331L149.951 82H130.231L136.946 48.425C138.703 39.5283 142.415 32.7567 148.081 28.11C153.805 23.4633 161.086 21.14 169.926 21.14ZM174.261 54.885L175.281 49.615C175.621 47.9717 175.791 46.555 175.791 45.365C175.791 42.7017 175.111 40.7183 173.751 39.415C172.391 38.055 170.436 37.375 167.886 37.375C164.94 37.375 162.503 38.2817 160.576 40.095C158.706 41.9083 157.375 44.7983 156.581 48.765L155.391 54.885H174.261Z" fill="white"/>
</g>
<defs>
<clipPath id="clip0_1_2">
<rect width="198" height="104" fill="white"/>
</clipPath>
</defs>
</svg>
